<svg width="1001" height="496" viewBox="0 0 1001 496" fill="none" xmlns="http://www.w3.org/2000/svg">
<g opacity="0.29827">
<path d="M1008.08 163.448L443.182 -356.858V-747.19L28.1096 -770C24.9043 -762.456 4.36709 -740.714 7.57176 -728.596C11.43 -714.102 30.8387 -718.735 36.4776 -709.409C43.0661 -698.42 31.7291 -653.749 28.3457 -640.86C21.8759 -616.445 7.09676 -596.665 2.82235 -572.25C-4.35982 -531.263 10.1824 -534.53 37.7242 -508.927C84.141 -465.742 46.9244 -420.952 58.6176 -370.223C68.1146 -328.878 109.605 -307.554 124.8 -266.211C136.553 -234.37 152.697 -226.233 177.746 -202.947C177.153 -217.084 164.51 -258.785 188.253 -255.102C211.817 -251.478 202.736 -216.669 207.247 -202.115C211.045 -189.997 237.933 -165.761 215.616 -154.593C208.196 -150.91 187.066 -165.582 178.577 -169.503C184.572 -150.791 180.774 -131.367 190.271 -113.487C201.608 -92.162 213.835 -100.359 228.853 -88.7754C244.344 -76.8355 242.683 -63.1137 235.797 -45.0554C228.615 -26.2247 221.196 -29.1352 232.592 -6.44342C240.843 9.95119 254.85 30.7421 266.9 43.2164C273.904 50.4634 281.502 52.1267 288.506 61.3932C294.323 69.1155 292.067 79.2142 299.012 86.1638C310.883 98.1037 331.006 98.282 340.384 113.904C350.831 131.309 338.96 144.437 369.706 142.833C371.309 177.643 377.897 209.185 377.541 243.994C394.695 250.825 422.414 242.687 440.399 239.063C458.266 263.18 481.355 246.429 501.774 259.558C510.678 265.26 508.837 279.517 514.239 284.506C525.339 294.723 533.529 288.308 547.301 291.872C557.51 294.486 565.404 301.97 575.138 304.703C584.338 307.257 599.475 301.258 606.301 309.396C614.492 319.138 600.78 336.958 613.127 344.799C623.395 351.333 638.115 335.77 648.088 338.027C659.721 340.7 693.079 371.174 701.271 381.212C710.59 392.677 719.969 414.062 725.25 428.793C733.501 451.841 732.373 463.127 749.408 479.998C760.27 490.75 749.942 491.522 767.63 494.67C779.204 496.749 794.518 488.374 806.212 487.067C830.549 484.394 855.122 489.027 879.102 484.453C901.421 480.176 922.729 473.166 945.64 469.899C965.465 467.048 1000.37 469.246 1017.94 459.801C1036.99 449.643 1038.71 426.654 1011.17 430.932C1008.97 416.26 1018.77 396.003 1007.85 385.847C1023.04 365.056 1028.56 350.384 1030.93 324.959C1032 313.792 1032.48 301.436 1038 292.05C1043.4 282.783 1058.59 277.259 1061.56 269.299C1066.13 256.943 1058.83 251.419 1053.25 244.528C1049.69 240.073 1039.54 242.212 1036.63 238.291C1031.23 231.103 1036.57 223.678 1033.6 216.431C1024.94 195.462 1014.61 187.205 1008.08 163.444C1008.26 167.424 1008.44 171.463 1008.2 175.384" stroke="white" stroke-width="2" stroke-linecap="round" stroke-linejoin="round"/>
</g>
<path d="M728.726 91C729.192 128.875 728.101 142.166 727.227 166.921C726.968 174.257 726.943 186.376 727.216 193.706C727.802 209.47 730.024 186.537 729.883 207.318C729.737 228.78 727.859 258.808 727.774 260.862C727.031 278.895 726.788 324.645 727.198 349.728C727.489 367.575 729.421 361.559 730.029 355.616C734.008 316.694 732.215 321.335 736.685 309.249C737.027 308.324 737.386 307.85 737.714 310.837C738.053 313.913 738.042 326.531 737.929 333.353C737.552 355.96 735.867 394.306 736.321 424.023C736.46 433.141 736.786 438.901 736.933 447.912C737.048 454.97 737.035 463.304 737.086 471" stroke="white" stroke-width="2"/>
<path fill-rule="evenodd" clip-rule="evenodd" d="M570 319C571.657 319 573 317.657 573 316C573 314.343 571.657 313 570 313C568.343 313 567 314.343 567 316C567 317.657 568.343 319 570 319Z" fill="#4AF6CD"/>
<path fill-rule="evenodd" clip-rule="evenodd" d="M661 363C662.657 363 664 361.657 664 360C664 358.343 662.657 357 661 357C659.343 357 658 358.343 658 360C658 361.657 659.343 363 661 363Z" fill="#4AF6CD"/>
<path fill-rule="evenodd" clip-rule="evenodd" d="M728.5 478C732.09 478 735 475.09 735 471.5C735 467.91 732.09 465 728.5 465C724.91 465 722 467.91 722 471.5C722 475.09 724.91 478 728.5 478Z" fill="#4AF6CD"/>
<path fill-rule="evenodd" clip-rule="evenodd" d="M365 228C366.657 228 368 226.657 368 225C368 223.343 366.657 222 365 222C363.343 222 362 223.343 362 225C362 226.657 363.343 228 365 228Z" fill="#4AF6CD"/>
<path fill-rule="evenodd" clip-rule="evenodd" d="M729.5 91C733.09 91 736 88.0899 736 84.5C736 80.9101 733.09 78 729.5 78C725.91 78 723 80.9101 723 84.5C723 88.0899 725.91 91 729.5 91Z" fill="#4AF6CD"/>
<path d="M551.021 455.976L550.845 457.192H546.573V460.792H550.285V462.008H546.573V465.784H551.149V467H545.053V455.976H551.021ZM559.028 465.032C559.028 465.373 559.087 465.629 559.204 465.8C559.321 465.96 559.497 466.083 559.732 466.168L559.396 467.192C558.959 467.139 558.607 467.016 558.34 466.824C558.073 466.632 557.876 466.333 557.748 465.928C557.183 466.771 556.345 467.192 555.236 467.192C554.404 467.192 553.748 466.957 553.268 466.488C552.788 466.019 552.548 465.405 552.548 464.648C552.548 463.752 552.868 463.064 553.508 462.584C554.159 462.104 555.076 461.864 556.26 461.864H557.556V461.24C557.556 460.643 557.412 460.216 557.124 459.96C556.836 459.704 556.393 459.576 555.796 459.576C555.177 459.576 554.42 459.725 553.524 460.024L553.156 458.952C554.201 458.568 555.172 458.376 556.068 458.376C557.06 458.376 557.801 458.621 558.292 459.112C558.783 459.592 559.028 460.28 559.028 461.176V465.032ZM555.572 466.088C556.415 466.088 557.076 465.651 557.556 464.776V462.84H556.452C554.895 462.84 554.116 463.416 554.116 464.568C554.116 465.069 554.239 465.448 554.484 465.704C554.729 465.96 555.092 466.088 555.572 466.088ZM564.183 458.376C564.759 458.376 565.276 458.456 565.735 458.616C566.194 458.776 566.631 459.016 567.047 459.336L566.423 460.264C566.039 460.019 565.671 459.837 565.319 459.72C564.978 459.603 564.615 459.544 564.231 459.544C563.751 459.544 563.372 459.645 563.095 459.848C562.818 460.04 562.679 460.307 562.679 460.648C562.679 460.989 562.807 461.256 563.063 461.448C563.33 461.64 563.804 461.827 564.487 462.008C565.426 462.243 566.124 462.563 566.583 462.968C567.052 463.373 567.287 463.928 567.287 464.632C567.287 465.464 566.962 466.099 566.311 466.536C565.671 466.973 564.887 467.192 563.959 467.192C562.679 467.192 561.618 466.824 560.775 466.088L561.559 465.192C562.274 465.736 563.063 466.008 563.927 466.008C564.482 466.008 564.919 465.896 565.239 465.672C565.57 465.437 565.735 465.123 565.735 464.728C565.735 464.44 565.676 464.211 565.559 464.04C565.442 463.859 565.239 463.704 564.951 463.576C564.663 463.437 564.242 463.293 563.687 463.144C562.791 462.909 562.14 462.595 561.735 462.2C561.34 461.805 561.143 461.304 561.143 460.696C561.143 460.259 561.271 459.864 561.527 459.512C561.794 459.149 562.156 458.872 562.615 458.68C563.084 458.477 563.607 458.376 564.183 458.376ZM573.62 466.616C573.065 467 572.436 467.192 571.732 467.192C571.017 467.192 570.457 466.989 570.052 466.584C569.657 466.168 569.46 465.571 569.46 464.792V459.704H567.988V458.568H569.46V456.664L570.932 456.488V458.568H572.932L572.772 459.704H570.932V464.728C570.932 465.165 571.006 465.485 571.156 465.688C571.316 465.88 571.577 465.976 571.94 465.976C572.27 465.976 572.644 465.864 573.06 465.64L573.62 466.616ZM582.179 455.784C582.915 455.784 583.545 455.891 584.067 456.104C584.59 456.307 585.097 456.627 585.587 457.064L584.755 457.992C584.339 457.661 583.929 457.421 583.523 457.272C583.129 457.112 582.702 457.032 582.243 457.032C581.667 457.032 581.193 457.165 580.819 457.432C580.446 457.699 580.259 458.088 580.259 458.6C580.259 458.92 580.323 459.192 580.451 459.416C580.579 459.629 580.814 459.827 581.155 460.008C581.507 460.189 582.014 460.381 582.675 460.584C583.369 460.797 583.945 461.027 584.403 461.272C584.862 461.517 585.23 461.859 585.507 462.296C585.795 462.723 585.939 463.267 585.939 463.928C585.939 464.568 585.779 465.133 585.459 465.624C585.15 466.115 584.697 466.499 584.099 466.776C583.513 467.053 582.814 467.192 582.003 467.192C580.478 467.192 579.23 466.717 578.259 465.768L579.091 464.84C579.539 465.203 579.993 465.48 580.451 465.672C580.91 465.853 581.422 465.944 581.987 465.944C582.67 465.944 583.235 465.779 583.683 465.448C584.131 465.107 584.355 464.616 584.355 463.976C584.355 463.613 584.286 463.315 584.147 463.08C584.009 462.835 583.769 462.616 583.427 462.424C583.097 462.232 582.611 462.04 581.971 461.848C580.841 461.507 580.014 461.096 579.491 460.616C578.969 460.136 578.707 459.485 578.707 458.664C578.707 458.109 578.851 457.613 579.139 457.176C579.438 456.739 579.849 456.397 580.371 456.152C580.905 455.907 581.507 455.784 582.179 455.784ZM592.066 458.376C592.834 458.376 593.431 458.605 593.858 459.064C594.295 459.523 594.514 460.152 594.514 460.952V467H593.042V461.16C593.042 460.563 592.925 460.141 592.69 459.896C592.466 459.651 592.135 459.528 591.698 459.528C591.261 459.528 590.871 459.656 590.53 459.912C590.189 460.168 589.869 460.531 589.57 461V467H588.098V455.192L589.57 455.032V459.736C590.231 458.829 591.063 458.376 592.066 458.376ZM600.641 458.376C601.825 458.376 602.742 458.771 603.393 459.56C604.054 460.349 604.385 461.421 604.385 462.776C604.385 463.651 604.236 464.424 603.937 465.096C603.638 465.757 603.206 466.275 602.641 466.648C602.076 467.011 601.404 467.192 600.625 467.192C599.441 467.192 598.518 466.797 597.857 466.008C597.196 465.219 596.865 464.147 596.865 462.792C596.865 461.917 597.014 461.149 597.313 460.488C597.612 459.816 598.044 459.299 598.609 458.936C599.174 458.563 599.852 458.376 600.641 458.376ZM600.641 459.56C599.18 459.56 598.449 460.637 598.449 462.792C598.449 464.936 599.174 466.008 600.625 466.008C602.076 466.008 602.801 464.931 602.801 462.776C602.801 460.632 602.081 459.56 600.641 459.56ZM610.481 458.376C610.78 458.376 611.057 458.408 611.313 458.472L611.041 459.912C610.785 459.848 610.54 459.816 610.305 459.816C609.782 459.816 609.361 460.008 609.041 460.392C608.721 460.776 608.47 461.373 608.289 462.184V467H606.817V458.568H608.081L608.225 460.28C608.449 459.651 608.753 459.176 609.137 458.856C609.521 458.536 609.969 458.376 610.481 458.376ZM618.872 462.536C618.872 462.781 618.862 463.032 618.84 463.288H613.464C613.528 464.216 613.763 464.899 614.168 465.336C614.574 465.773 615.096 465.992 615.736 465.992C616.142 465.992 616.515 465.933 616.856 465.816C617.198 465.699 617.555 465.512 617.928 465.256L618.568 466.136C617.672 466.84 616.691 467.192 615.624 467.192C614.451 467.192 613.534 466.808 612.872 466.04C612.222 465.272 611.896 464.216 611.896 462.872C611.896 461.997 612.035 461.224 612.312 460.552C612.6 459.869 613.006 459.336 613.528 458.952C614.062 458.568 614.686 458.376 615.4 458.376C616.52 458.376 617.379 458.744 617.976 459.48C618.574 460.216 618.872 461.235 618.872 462.536ZM617.416 462.104C617.416 461.272 617.251 460.637 616.92 460.2C616.59 459.763 616.094 459.544 615.432 459.544C614.227 459.544 613.571 460.429 613.464 462.2H617.416V462.104ZM627.41 454.184V468.568H627.058V454.184H627.41ZM646.237 467H644.765L644.381 462.024C644.221 460.072 644.131 458.573 644.109 457.528L641.725 465.752H640.301L637.789 457.512C637.789 458.845 637.72 460.387 637.581 462.136L637.213 467H635.773L636.685 455.976H638.733L641.053 463.992L643.261 455.976H645.325L646.237 467ZM654.434 465.032C654.434 465.373 654.493 465.629 654.61 465.8C654.728 465.96 654.904 466.083 655.138 466.168L654.802 467.192C654.365 467.139 654.013 467.016 653.746 466.824C653.48 466.632 653.282 466.333 653.154 465.928C652.589 466.771 651.752 467.192 650.642 467.192C649.81 467.192 649.154 466.957 648.674 466.488C648.194 466.019 647.954 465.405 647.954 464.648C647.954 463.752 648.274 463.064 648.914 462.584C649.565 462.104 650.482 461.864 651.666 461.864H652.962V461.24C652.962 460.643 652.818 460.216 652.53 459.96C652.242 459.704 651.8 459.576 651.202 459.576C650.584 459.576 649.826 459.725 648.93 460.024L648.562 458.952C649.608 458.568 650.578 458.376 651.474 458.376C652.466 458.376 653.208 458.621 653.698 459.112C654.189 459.592 654.434 460.28 654.434 461.176V465.032ZM650.978 466.088C651.821 466.088 652.482 465.651 652.962 464.776V462.84H651.858C650.301 462.84 649.522 463.416 649.522 464.568C649.522 465.069 649.645 465.448 649.89 465.704C650.136 465.96 650.498 466.088 650.978 466.088ZM658.981 467.192C658.437 467.192 658.005 467.032 657.685 466.712C657.376 466.381 657.221 465.923 657.221 465.336V455.176L658.693 455V465.304C658.693 465.539 658.731 465.709 658.805 465.816C658.891 465.923 659.029 465.976 659.221 465.976C659.424 465.976 659.605 465.944 659.765 465.88L660.149 466.904C659.797 467.096 659.408 467.192 658.981 467.192ZM663.461 458.568V467H661.989V458.568H663.461ZM662.709 454.52C663.018 454.52 663.269 454.616 663.461 454.808C663.653 455 663.749 455.24 663.749 455.528C663.749 455.816 663.653 456.056 663.461 456.248C663.269 456.429 663.018 456.52 662.709 456.52C662.41 456.52 662.165 456.429 661.973 456.248C661.781 456.056 661.685 455.816 661.685 455.528C661.685 455.24 661.781 455 661.973 454.808C662.165 454.616 662.41 454.52 662.709 454.52ZM670.36 458.376C671.32 458.376 672.083 458.765 672.648 459.544C673.214 460.312 673.496 461.389 673.496 462.776C673.496 463.651 673.363 464.424 673.096 465.096C672.83 465.757 672.446 466.275 671.944 466.648C671.443 467.011 670.856 467.192 670.184 467.192C669.299 467.192 668.552 466.819 667.944 466.072L667.8 467H666.504V455.176L667.976 455V459.624C668.584 458.792 669.379 458.376 670.36 458.376ZM669.832 466.024C670.483 466.024 670.99 465.763 671.352 465.24C671.726 464.707 671.912 463.885 671.912 462.776C671.912 461.635 671.742 460.813 671.4 460.312C671.059 459.8 670.574 459.544 669.944 459.544C669.198 459.544 668.542 459.981 667.976 460.856V464.888C668.2 465.24 668.472 465.517 668.792 465.72C669.123 465.923 669.47 466.024 669.832 466.024ZM682.276 467H681.012L680.9 465.688C680.58 466.211 680.212 466.595 679.796 466.84C679.38 467.075 678.874 467.192 678.276 467.192C677.54 467.192 676.964 466.968 676.548 466.52C676.132 466.072 675.924 465.437 675.924 464.616V458.568H677.396V464.456C677.396 465.032 677.498 465.443 677.7 465.688C677.903 465.923 678.234 466.04 678.692 466.04C679.514 466.04 680.218 465.555 680.804 464.584V458.568H682.276V467ZM685.701 464.968C686.021 464.968 686.288 465.075 686.501 465.288C686.714 465.501 686.821 465.763 686.821 466.072C686.821 466.403 686.725 466.781 686.533 467.208L685.461 469.656H684.405L685.045 467C684.906 466.893 684.794 466.76 684.709 466.6C684.634 466.44 684.597 466.264 684.597 466.072C684.597 465.763 684.704 465.501 684.917 465.288C685.13 465.075 685.392 464.968 685.701 464.968ZM697.331 455.784C697.992 455.784 698.547 455.869 698.995 456.04C699.454 456.211 699.918 456.488 700.387 456.872L699.555 457.848C698.883 457.304 698.174 457.032 697.427 457.032C696.51 457.032 695.768 457.384 695.203 458.088C694.648 458.792 694.371 459.923 694.371 461.48C694.371 462.995 694.648 464.115 695.203 464.84C695.758 465.555 696.494 465.912 697.411 465.912C697.88 465.912 698.291 465.832 698.643 465.672C698.995 465.512 699.368 465.288 699.763 465L700.515 465.96C700.174 466.312 699.736 466.605 699.203 466.84C698.67 467.075 698.056 467.192 697.363 467.192C696.467 467.192 695.667 466.973 694.963 466.536C694.27 466.088 693.726 465.437 693.331 464.584C692.947 463.72 692.755 462.685 692.755 461.48C692.755 460.275 692.958 459.245 693.363 458.392C693.768 457.528 694.318 456.877 695.011 456.44C695.704 456.003 696.478 455.784 697.331 455.784ZM708.3 467L707.468 464.232H703.292L702.46 467H700.924L704.46 455.976H706.38L709.9 467H708.3ZM703.66 463H707.1L705.388 457.24L703.66 463Z" fill="white"/>
<path d="M598.378 75.784C599.039 75.784 599.594 75.8693 600.042 76.04C600.501 76.2107 600.965 76.488 601.434 76.872L600.602 77.848C599.93 77.304 599.221 77.032 598.474 77.032C597.557 77.032 596.815 77.384 596.25 78.088C595.695 78.792 595.418 79.9227 595.418 81.48C595.418 82.9947 595.695 84.1147 596.25 84.84C596.805 85.5547 597.541 85.912 598.458 85.912C598.927 85.912 599.338 85.832 599.69 85.672C600.042 85.512 600.415 85.288 600.81 85L601.562 85.96C601.221 86.312 600.783 86.6053 600.25 86.84C599.717 87.0747 599.103 87.192 598.41 87.192C597.514 87.192 596.714 86.9733 596.01 86.536C595.317 86.088 594.773 85.4373 594.378 84.584C593.994 83.72 593.802 82.6853 593.802 81.48C593.802 80.2747 594.005 79.2453 594.41 78.392C594.815 77.528 595.365 76.8773 596.058 76.44C596.751 76.0027 597.525 75.784 598.378 75.784ZM609.401 87H608.137L608.025 85.688C607.705 86.2107 607.337 86.5947 606.921 86.84C606.505 87.0747 605.999 87.192 605.401 87.192C604.665 87.192 604.089 86.968 603.673 86.52C603.257 86.072 603.049 85.4373 603.049 84.616V78.568H604.521V84.456C604.521 85.032 604.623 85.4427 604.825 85.688C605.028 85.9227 605.359 86.04 605.817 86.04C606.639 86.04 607.343 85.5547 607.929 84.584V78.568H609.401V87ZM616.106 78.376C616.405 78.376 616.682 78.408 616.938 78.472L616.666 79.912C616.41 79.848 616.165 79.816 615.93 79.816C615.407 79.816 614.986 80.008 614.666 80.392C614.346 80.776 614.095 81.3733 613.914 82.184V87H612.442V78.568H613.706L613.85 80.28C614.074 79.6507 614.378 79.176 614.762 78.856C615.146 78.536 615.594 78.376 616.106 78.376ZM622.278 78.376C622.576 78.376 622.854 78.408 623.11 78.472L622.838 79.912C622.582 79.848 622.336 79.816 622.102 79.816C621.579 79.816 621.158 80.008 620.838 80.392C620.518 80.776 620.267 81.3733 620.086 82.184V87H618.614V78.568H619.878L620.022 80.28C620.246 79.6507 620.55 79.176 620.934 78.856C621.318 78.536 621.766 78.376 622.278 78.376ZM630.669 82.536C630.669 82.7813 630.659 83.032 630.637 83.288H625.261C625.325 84.216 625.56 84.8987 625.965 85.336C626.371 85.7733 626.893 85.992 627.533 85.992C627.939 85.992 628.312 85.9333 628.653 85.816C628.995 85.6987 629.352 85.512 629.725 85.256L630.365 86.136C629.469 86.84 628.488 87.192 627.421 87.192C626.248 87.192 625.331 86.808 624.669 86.04C624.019 85.272 623.693 84.216 623.693 82.872C623.693 81.9973 623.832 81.224 624.109 80.552C624.397 79.8693 624.803 79.336 625.325 78.952C625.859 78.568 626.483 78.376 627.197 78.376C628.317 78.376 629.176 78.744 629.773 79.48C630.371 80.216 630.669 81.2347 630.669 82.536ZM629.213 82.104C629.213 81.272 629.048 80.6373 628.717 80.2C628.387 79.7627 627.891 79.544 627.229 79.544C626.024 79.544 625.368 80.4293 625.261 82.2H629.213V82.104ZM636.988 78.376C637.756 78.376 638.353 78.6053 638.78 79.064C639.217 79.5227 639.436 80.152 639.436 80.952V87H637.964V81.16C637.964 80.5627 637.852 80.1413 637.628 79.896C637.404 79.6507 637.073 79.528 636.636 79.528C636.188 79.528 635.793 79.656 635.452 79.912C635.111 80.168 634.791 80.536 634.492 81.016V87H633.02V78.568H634.284L634.412 79.816C634.711 79.368 635.079 79.016 635.516 78.76C635.964 78.504 636.455 78.376 636.988 78.376ZM646.651 86.616C646.096 87 645.467 87.192 644.763 87.192C644.048 87.192 643.488 86.9893 643.083 86.584C642.688 86.168 642.491 85.5707 642.491 84.792V79.704H641.019V78.568H642.491V76.664L643.963 76.488V78.568H645.963L645.803 79.704H643.963V84.728C643.963 85.1653 644.038 85.4853 644.187 85.688C644.347 85.88 644.608 85.976 644.971 85.976C645.302 85.976 645.675 85.864 646.091 85.64L646.651 86.616ZM654.011 75.976V85.672H658.539L658.363 87H652.491V75.976H654.011ZM663.141 78.376C664.325 78.376 665.242 78.7707 665.893 79.56C666.554 80.3493 666.885 81.4213 666.885 82.776C666.885 83.6507 666.736 84.424 666.437 85.096C666.138 85.7573 665.706 86.2747 665.141 86.648C664.576 87.0107 663.904 87.192 663.125 87.192C661.941 87.192 661.018 86.7973 660.357 86.008C659.696 85.2187 659.365 84.1467 659.365 82.792C659.365 81.9173 659.514 81.1493 659.813 80.488C660.112 79.816 660.544 79.2987 661.109 78.936C661.674 78.5627 662.352 78.376 663.141 78.376ZM663.141 79.56C661.68 79.56 660.949 80.6373 660.949 82.792C660.949 84.936 661.674 86.008 663.125 86.008C664.576 86.008 665.301 84.9307 665.301 82.776C665.301 80.632 664.581 79.56 663.141 79.56ZM672.389 78.376C672.89 78.376 673.349 78.4507 673.765 78.6C674.181 78.7387 674.581 78.968 674.965 79.288L674.261 80.216C673.962 80.0027 673.669 79.848 673.381 79.752C673.104 79.6453 672.794 79.592 672.453 79.592C671.77 79.592 671.237 79.864 670.853 80.408C670.48 80.952 670.293 81.7573 670.293 82.824C670.293 83.8907 670.48 84.68 670.853 85.192C671.226 85.6933 671.76 85.944 672.453 85.944C672.784 85.944 673.088 85.896 673.365 85.8C673.642 85.6933 673.952 85.528 674.293 85.304L674.965 86.264C674.197 86.8827 673.338 87.192 672.389 87.192C671.248 87.192 670.346 86.808 669.685 86.04C669.034 85.272 668.709 84.2107 668.709 82.856C668.709 81.96 668.858 81.176 669.157 80.504C669.456 79.832 669.877 79.3093 670.421 78.936C670.976 78.5627 671.632 78.376 672.389 78.376ZM682.481 85.032C682.481 85.3733 682.54 85.6293 682.657 85.8C682.775 85.96 682.951 86.0827 683.185 86.168L682.849 87.192C682.412 87.1387 682.06 87.016 681.793 86.824C681.527 86.632 681.329 86.3333 681.201 85.928C680.636 86.7707 679.799 87.192 678.689 87.192C677.857 87.192 677.201 86.9573 676.721 86.488C676.241 86.0187 676.001 85.4053 676.001 84.648C676.001 83.752 676.321 83.064 676.961 82.584C677.612 82.104 678.529 81.864 679.713 81.864H681.009V81.24C681.009 80.6427 680.865 80.216 680.577 79.96C680.289 79.704 679.847 79.576 679.249 79.576C678.631 79.576 677.873 79.7253 676.977 80.024L676.609 78.952C677.655 78.568 678.625 78.376 679.521 78.376C680.513 78.376 681.255 78.6213 681.745 79.112C682.236 79.592 682.481 80.28 682.481 81.176V85.032ZM679.025 86.088C679.868 86.088 680.529 85.6507 681.009 84.776V82.84H679.905C678.348 82.84 677.569 83.416 677.569 84.568C677.569 85.0693 677.692 85.448 677.937 85.704C678.183 85.96 678.545 86.088 679.025 86.088ZM689.76 86.616C689.206 87 688.576 87.192 687.872 87.192C687.158 87.192 686.598 86.9893 686.192 86.584C685.798 86.168 685.6 85.5707 685.6 84.792V79.704H684.128V78.568H685.6V76.664L687.072 76.488V78.568H689.072L688.912 79.704H687.072V84.728C687.072 85.1653 687.147 85.4853 687.296 85.688C687.456 85.88 687.718 85.976 688.08 85.976C688.411 85.976 688.784 85.864 689.2 85.64L689.76 86.616ZM692.758 78.568V87H691.286V78.568H692.758ZM692.006 74.52C692.315 74.52 692.566 74.616 692.758 74.808C692.95 75 693.046 75.24 693.046 75.528C693.046 75.816 692.95 76.056 692.758 76.248C692.566 76.4293 692.315 76.52 692.006 76.52C691.707 76.52 691.462 76.4293 691.27 76.248C691.078 76.056 690.982 75.816 690.982 75.528C690.982 75.24 691.078 75 691.27 74.808C691.462 74.616 691.707 74.52 692.006 74.52ZM698.969 78.376C700.153 78.376 701.071 78.7707 701.721 79.56C702.383 80.3493 702.713 81.4213 702.713 82.776C702.713 83.6507 702.564 84.424 702.265 85.096C701.967 85.7573 701.535 86.2747 700.969 86.648C700.404 87.0107 699.732 87.192 698.953 87.192C697.769 87.192 696.847 86.7973 696.185 86.008C695.524 85.2187 695.193 84.1467 695.193 82.792C695.193 81.9173 695.343 81.1493 695.641 80.488C695.94 79.816 696.372 79.2987 696.937 78.936C697.503 78.5627 698.18 78.376 698.969 78.376ZM698.969 79.56C697.508 79.56 696.777 80.6373 696.777 82.792C696.777 84.936 697.503 86.008 698.953 86.008C700.404 86.008 701.129 84.9307 701.129 82.776C701.129 80.632 700.409 79.56 698.969 79.56ZM709.113 78.376C709.881 78.376 710.478 78.6053 710.905 79.064C711.342 79.5227 711.561 80.152 711.561 80.952V87H710.089V81.16C710.089 80.5627 709.977 80.1413 709.753 79.896C709.529 79.6507 709.198 79.528 708.761 79.528C708.313 79.528 707.918 79.656 707.577 79.912C707.236 80.168 706.916 80.536 706.617 81.016V87H705.145V78.568H706.409L706.537 79.816C706.836 79.368 707.204 79.016 707.641 78.76C708.089 78.504 708.58 78.376 709.113 78.376Z" fill="white"/>
</svg>
