<svg width="1001" height="496" viewBox="0 0 1001 496" fill="none" xmlns="http://www.w3.org/2000/svg">
<g opacity="0.29827">
<path d="M1008.08 163.448L443.182 -356.858V-747.19L28.1096 -770C24.9043 -762.456 4.36709 -740.714 7.57176 -728.596C11.43 -714.102 30.8387 -718.735 36.4776 -709.409C43.0661 -698.42 31.7291 -653.749 28.3457 -640.86C21.8759 -616.445 7.09676 -596.665 2.82235 -572.25C-4.35982 -531.263 10.1824 -534.53 37.7242 -508.927C84.141 -465.742 46.9244 -420.952 58.6176 -370.223C68.1146 -328.878 109.605 -307.554 124.8 -266.211C136.553 -234.37 152.697 -226.233 177.746 -202.947C177.153 -217.084 164.51 -258.785 188.253 -255.102C211.817 -251.478 202.736 -216.669 207.247 -202.115C211.045 -189.997 237.933 -165.761 215.616 -154.593C208.196 -150.91 187.066 -165.582 178.577 -169.503C184.572 -150.791 180.774 -131.367 190.271 -113.487C201.608 -92.162 213.835 -100.359 228.853 -88.7754C244.344 -76.8355 242.683 -63.1137 235.797 -45.0554C228.615 -26.2247 221.196 -29.1352 232.592 -6.44342C240.843 9.95119 254.85 30.7421 266.9 43.2164C273.904 50.4634 281.502 52.1267 288.506 61.3932C294.323 69.1155 292.067 79.2142 299.012 86.1638C310.883 98.1037 331.006 98.282 340.384 113.904C350.831 131.309 338.96 144.437 369.706 142.833C371.309 177.643 377.897 209.185 377.541 243.994C394.695 250.825 422.414 242.687 440.399 239.063C458.266 263.18 481.355 246.429 501.774 259.558C510.678 265.26 508.837 279.517 514.239 284.506C525.339 294.723 533.529 288.308 547.301 291.872C557.51 294.486 565.404 301.97 575.138 304.703C584.338 307.257 599.475 301.258 606.301 309.396C614.492 319.138 600.78 336.958 613.127 344.799C623.395 351.333 638.115 335.77 648.088 338.027C659.721 340.7 693.079 371.174 701.271 381.212C710.59 392.677 719.969 414.062 725.25 428.793C733.501 451.841 732.373 463.127 749.408 479.998C760.27 490.75 749.942 491.522 767.63 494.67C779.204 496.749 794.518 488.374 806.212 487.067C830.549 484.394 855.122 489.027 879.102 484.453C901.421 480.176 922.729 473.166 945.64 469.899C965.465 467.048 1000.37 469.246 1017.94 459.801C1036.99 449.643 1038.71 426.654 1011.17 430.932C1008.97 416.26 1018.77 396.003 1007.85 385.847C1023.04 365.056 1028.56 350.384 1030.93 324.959C1032 313.792 1032.48 301.436 1038 292.05C1043.4 282.783 1058.59 277.259 1061.56 269.299C1066.13 256.943 1058.83 251.419 1053.25 244.528C1049.69 240.073 1039.54 242.212 1036.63 238.291C1031.23 231.103 1036.57 223.678 1033.6 216.431C1024.94 195.462 1014.61 187.205 1008.08 163.444C1008.26 167.424 1008.44 171.463 1008.2 175.384" stroke="white" stroke-width="2" stroke-linecap="round" stroke-linejoin="round"/>
</g>
<path d="M724.602 82C721.255 109.211 729.095 118.759 735.37 136.543C737.23 141.813 737.407 150.52 735.45 155.786C731.241 167.111 715.284 150.636 716.296 165.565C717.341 180.984 730.833 202.557 731.441 204.033C736.78 216.988 738.519 249.855 735.579 267.876C733.486 280.698 719.612 276.376 715.248 272.106C686.669 244.143 699.547 247.478 667.444 238.795C664.987 238.13 662.411 237.79 660.051 239.935C657.62 242.145 657.697 251.211 658.513 256.112C661.216 272.353 673.317 299.902 670.061 321.251C669.061 327.802 666.72 331.939 665.666 338.413C664.84 343.484 664.931 349.471 664.564 355" stroke="white" stroke-width="2"/>
<path fill-rule="evenodd" clip-rule="evenodd" d="M570 319C571.657 319 573 317.657 573 316C573 314.343 571.657 313 570 313C568.343 313 567 314.343 567 316C567 317.657 568.343 319 570 319Z" fill="#4AF6CD"/>
<path fill-rule="evenodd" clip-rule="evenodd" d="M664.5 370C668.09 370 671 367.09 671 363.5C671 359.91 668.09 357 664.5 357C660.91 357 658 359.91 658 363.5C658 367.09 660.91 370 664.5 370Z" fill="#4AF6CD"/>
<path fill-rule="evenodd" clip-rule="evenodd" d="M725 471C726.657 471 728 469.657 728 468C728 466.343 726.657 465 725 465C723.343 465 722 466.343 722 468C722 469.657 723.343 471 725 471Z" fill="#4AF6CD"/>
<path fill-rule="evenodd" clip-rule="evenodd" d="M365 228C366.657 228 368 226.657 368 225C368 223.343 366.657 222 365 222C363.343 222 362 223.343 362 225C362 226.657 363.343 228 365 228Z" fill="#4AF6CD"/>
<path fill-rule="evenodd" clip-rule="evenodd" d="M729.5 91C733.09 91 736 88.0899 736 84.5C736 80.9101 733.09 78 729.5 78C725.91 78 723 80.9101 723 84.5C723 88.0899 725.91 91 729.5 91Z" fill="#4AF6CD"/>
<path d="M484.359 385H482.327L477.847 375.64C477.911 376.376 477.959 377.059 477.991 377.688C478.034 378.307 478.055 379.059 478.055 379.944V385H476.631V373.976H478.615L483.143 383.352C483.111 383.075 483.069 382.589 483.015 381.896C482.962 381.203 482.935 380.568 482.935 379.992V373.976H484.359V385ZM490.641 376.376C491.825 376.376 492.742 376.771 493.393 377.56C494.054 378.349 494.385 379.421 494.385 380.776C494.385 381.651 494.236 382.424 493.937 383.096C493.638 383.757 493.206 384.275 492.641 384.648C492.076 385.011 491.404 385.192 490.625 385.192C489.441 385.192 488.518 384.797 487.857 384.008C487.196 383.219 486.865 382.147 486.865 380.792C486.865 379.917 487.014 379.149 487.313 378.488C487.612 377.816 488.044 377.299 488.609 376.936C489.174 376.563 489.852 376.376 490.641 376.376ZM490.641 377.56C489.18 377.56 488.449 378.637 488.449 380.792C488.449 382.936 489.174 384.008 490.625 384.008C492.076 384.008 492.801 382.931 492.801 380.776C492.801 378.632 492.081 377.56 490.641 377.56ZM500.481 376.376C500.78 376.376 501.057 376.408 501.313 376.472L501.041 377.912C500.785 377.848 500.54 377.816 500.305 377.816C499.782 377.816 499.361 378.008 499.041 378.392C498.721 378.776 498.47 379.373 498.289 380.184V385H496.817V376.568H498.081L498.225 378.28C498.449 377.651 498.753 377.176 499.137 376.856C499.521 376.536 499.969 376.376 500.481 376.376ZM507.245 384.616C506.69 385 506.061 385.192 505.357 385.192C504.642 385.192 504.082 384.989 503.677 384.584C503.282 384.168 503.085 383.571 503.085 382.792V377.704H501.613V376.568H503.085V374.664L504.557 374.488V376.568H506.557L506.397 377.704H504.557V382.728C504.557 383.165 504.631 383.485 504.781 383.688C504.941 383.88 505.202 383.976 505.565 383.976C505.895 383.976 506.269 383.864 506.685 383.64L507.245 384.616ZM512.738 376.376C513.506 376.376 514.103 376.605 514.53 377.064C514.967 377.523 515.186 378.152 515.186 378.952V385H513.714V379.16C513.714 378.563 513.597 378.141 513.362 377.896C513.138 377.651 512.807 377.528 512.37 377.528C511.933 377.528 511.543 377.656 511.202 377.912C510.861 378.168 510.541 378.531 510.242 379V385H508.77V373.192L510.242 373.032V377.736C510.903 376.829 511.735 376.376 512.738 376.376ZM525.179 373.784C525.915 373.784 526.545 373.891 527.067 374.104C527.59 374.307 528.097 374.627 528.587 375.064L527.755 375.992C527.339 375.661 526.929 375.421 526.523 375.272C526.129 375.112 525.702 375.032 525.243 375.032C524.667 375.032 524.193 375.165 523.819 375.432C523.446 375.699 523.259 376.088 523.259 376.6C523.259 376.92 523.323 377.192 523.451 377.416C523.579 377.629 523.814 377.827 524.155 378.008C524.507 378.189 525.014 378.381 525.675 378.584C526.369 378.797 526.945 379.027 527.403 379.272C527.862 379.517 528.23 379.859 528.507 380.296C528.795 380.723 528.939 381.267 528.939 381.928C528.939 382.568 528.779 383.133 528.459 383.624C528.15 384.115 527.697 384.499 527.099 384.776C526.513 385.053 525.814 385.192 525.003 385.192C523.478 385.192 522.23 384.717 521.259 383.768L522.091 382.84C522.539 383.203 522.993 383.48 523.451 383.672C523.91 383.853 524.422 383.944 524.987 383.944C525.67 383.944 526.235 383.779 526.683 383.448C527.131 383.107 527.355 382.616 527.355 381.976C527.355 381.613 527.286 381.315 527.147 381.08C527.009 380.835 526.769 380.616 526.427 380.424C526.097 380.232 525.611 380.04 524.971 379.848C523.841 379.507 523.014 379.096 522.491 378.616C521.969 378.136 521.707 377.485 521.707 376.664C521.707 376.109 521.851 375.613 522.139 375.176C522.438 374.739 522.849 374.397 523.371 374.152C523.905 373.907 524.507 373.784 525.179 373.784ZM535.066 376.376C535.834 376.376 536.431 376.605 536.858 377.064C537.295 377.523 537.514 378.152 537.514 378.952V385H536.042V379.16C536.042 378.563 535.925 378.141 535.69 377.896C535.466 377.651 535.135 377.528 534.698 377.528C534.261 377.528 533.871 377.656 533.53 377.912C533.189 378.168 532.869 378.531 532.57 379V385H531.098V373.192L532.57 373.032V377.736C533.231 376.829 534.063 376.376 535.066 376.376ZM543.641 376.376C544.825 376.376 545.742 376.771 546.393 377.56C547.054 378.349 547.385 379.421 547.385 380.776C547.385 381.651 547.236 382.424 546.937 383.096C546.638 383.757 546.206 384.275 545.641 384.648C545.076 385.011 544.404 385.192 543.625 385.192C542.441 385.192 541.518 384.797 540.857 384.008C540.196 383.219 539.865 382.147 539.865 380.792C539.865 379.917 540.014 379.149 540.313 378.488C540.612 377.816 541.044 377.299 541.609 376.936C542.174 376.563 542.852 376.376 543.641 376.376ZM543.641 377.56C542.18 377.56 541.449 378.637 541.449 380.792C541.449 382.936 542.174 384.008 543.625 384.008C545.076 384.008 545.801 382.931 545.801 380.776C545.801 378.632 545.081 377.56 543.641 377.56ZM553.481 376.376C553.78 376.376 554.057 376.408 554.313 376.472L554.041 377.912C553.785 377.848 553.54 377.816 553.305 377.816C552.782 377.816 552.361 378.008 552.041 378.392C551.721 378.776 551.47 379.373 551.289 380.184V385H549.817V376.568H551.081L551.225 378.28C551.449 377.651 551.753 377.176 552.137 376.856C552.521 376.536 552.969 376.376 553.481 376.376ZM561.872 380.536C561.872 380.781 561.862 381.032 561.84 381.288H556.464C556.528 382.216 556.763 382.899 557.168 383.336C557.574 383.773 558.096 383.992 558.736 383.992C559.142 383.992 559.515 383.933 559.856 383.816C560.198 383.699 560.555 383.512 560.928 383.256L561.568 384.136C560.672 384.84 559.691 385.192 558.624 385.192C557.451 385.192 556.534 384.808 555.872 384.04C555.222 383.272 554.896 382.216 554.896 380.872C554.896 379.997 555.035 379.224 555.312 378.552C555.6 377.869 556.006 377.336 556.528 376.952C557.062 376.568 557.686 376.376 558.4 376.376C559.52 376.376 560.379 376.744 560.976 377.48C561.574 378.216 561.872 379.235 561.872 380.536ZM560.416 380.104C560.416 379.272 560.251 378.637 559.92 378.2C559.59 377.763 559.094 377.544 558.432 377.544C557.227 377.544 556.571 378.429 556.464 380.2H560.416V380.104ZM570.41 372.184V386.568H570.058V372.184H570.41ZM589.237 385H587.765L587.381 380.024C587.221 378.072 587.131 376.573 587.109 375.528L584.725 383.752H583.301L580.789 375.512C580.789 376.845 580.72 378.387 580.581 380.136L580.213 385H578.773L579.685 373.976H581.733L584.053 381.992L586.261 373.976H588.325L589.237 385ZM597.434 383.032C597.434 383.373 597.493 383.629 597.61 383.8C597.728 383.96 597.904 384.083 598.138 384.168L597.802 385.192C597.365 385.139 597.013 385.016 596.746 384.824C596.48 384.632 596.282 384.333 596.154 383.928C595.589 384.771 594.752 385.192 593.642 385.192C592.81 385.192 592.154 384.957 591.674 384.488C591.194 384.019 590.954 383.405 590.954 382.648C590.954 381.752 591.274 381.064 591.914 380.584C592.565 380.104 593.482 379.864 594.666 379.864H595.962V379.24C595.962 378.643 595.818 378.216 595.53 377.96C595.242 377.704 594.8 377.576 594.202 377.576C593.584 377.576 592.826 377.725 591.93 378.024L591.562 376.952C592.608 376.568 593.578 376.376 594.474 376.376C595.466 376.376 596.208 376.621 596.698 377.112C597.189 377.592 597.434 378.28 597.434 379.176V383.032ZM593.978 384.088C594.821 384.088 595.482 383.651 595.962 382.776V380.84H594.858C593.301 380.84 592.522 381.416 592.522 382.568C592.522 383.069 592.645 383.448 592.89 383.704C593.136 383.96 593.498 384.088 593.978 384.088ZM601.981 385.192C601.437 385.192 601.005 385.032 600.685 384.712C600.376 384.381 600.221 383.923 600.221 383.336V373.176L601.693 373V383.304C601.693 383.539 601.731 383.709 601.805 383.816C601.891 383.923 602.029 383.976 602.221 383.976C602.424 383.976 602.605 383.944 602.765 383.88L603.149 384.904C602.797 385.096 602.408 385.192 601.981 385.192ZM606.461 376.568V385H604.989V376.568H606.461ZM605.709 372.52C606.018 372.52 606.269 372.616 606.461 372.808C606.653 373 606.749 373.24 606.749 373.528C606.749 373.816 606.653 374.056 606.461 374.248C606.269 374.429 606.018 374.52 605.709 374.52C605.41 374.52 605.165 374.429 604.973 374.248C604.781 374.056 604.685 373.816 604.685 373.528C604.685 373.24 604.781 373 604.973 372.808C605.165 372.616 605.41 372.52 605.709 372.52ZM613.36 376.376C614.32 376.376 615.083 376.765 615.648 377.544C616.214 378.312 616.496 379.389 616.496 380.776C616.496 381.651 616.363 382.424 616.096 383.096C615.83 383.757 615.446 384.275 614.944 384.648C614.443 385.011 613.856 385.192 613.184 385.192C612.299 385.192 611.552 384.819 610.944 384.072L610.8 385H609.504V373.176L610.976 373V377.624C611.584 376.792 612.379 376.376 613.36 376.376ZM612.832 384.024C613.483 384.024 613.99 383.763 614.352 383.24C614.726 382.707 614.912 381.885 614.912 380.776C614.912 379.635 614.742 378.813 614.4 378.312C614.059 377.8 613.574 377.544 612.944 377.544C612.198 377.544 611.542 377.981 610.976 378.856V382.888C611.2 383.24 611.472 383.517 611.792 383.72C612.123 383.923 612.47 384.024 612.832 384.024ZM625.276 385H624.012L623.9 383.688C623.58 384.211 623.212 384.595 622.796 384.84C622.38 385.075 621.874 385.192 621.276 385.192C620.54 385.192 619.964 384.968 619.548 384.52C619.132 384.072 618.924 383.437 618.924 382.616V376.568H620.396V382.456C620.396 383.032 620.498 383.443 620.7 383.688C620.903 383.923 621.234 384.04 621.692 384.04C622.514 384.04 623.218 383.555 623.804 382.584V376.568H625.276V385ZM628.701 382.968C629.021 382.968 629.288 383.075 629.501 383.288C629.714 383.501 629.821 383.763 629.821 384.072C629.821 384.403 629.725 384.781 629.533 385.208L628.461 387.656H627.405L628.045 385C627.906 384.893 627.794 384.76 627.709 384.6C627.634 384.44 627.597 384.264 627.597 384.072C627.597 383.763 627.704 383.501 627.917 383.288C628.13 383.075 628.392 382.968 628.701 382.968ZM640.331 373.784C640.992 373.784 641.547 373.869 641.995 374.04C642.454 374.211 642.918 374.488 643.387 374.872L642.555 375.848C641.883 375.304 641.174 375.032 640.427 375.032C639.51 375.032 638.768 375.384 638.203 376.088C637.648 376.792 637.371 377.923 637.371 379.48C637.371 380.995 637.648 382.115 638.203 382.84C638.758 383.555 639.494 383.912 640.411 383.912C640.88 383.912 641.291 383.832 641.643 383.672C641.995 383.512 642.368 383.288 642.763 383L643.515 383.96C643.174 384.312 642.736 384.605 642.203 384.84C641.67 385.075 641.056 385.192 640.363 385.192C639.467 385.192 638.667 384.973 637.963 384.536C637.27 384.088 636.726 383.437 636.331 382.584C635.947 381.72 635.755 380.685 635.755 379.48C635.755 378.275 635.958 377.245 636.363 376.392C636.768 375.528 637.318 374.877 638.011 374.44C638.704 374.003 639.478 373.784 640.331 373.784ZM651.3 385L650.468 382.232H646.292L645.46 385H643.924L647.46 373.976H649.38L652.9 385H651.3ZM646.66 381H650.1L648.388 375.24L646.66 381Z" fill="white"/>
<path d="M598.378 75.784C599.039 75.784 599.594 75.8693 600.042 76.04C600.501 76.2107 600.965 76.488 601.434 76.872L600.602 77.848C599.93 77.304 599.221 77.032 598.474 77.032C597.557 77.032 596.815 77.384 596.25 78.088C595.695 78.792 595.418 79.9227 595.418 81.48C595.418 82.9947 595.695 84.1147 596.25 84.84C596.805 85.5547 597.541 85.912 598.458 85.912C598.927 85.912 599.338 85.832 599.69 85.672C600.042 85.512 600.415 85.288 600.81 85L601.562 85.96C601.221 86.312 600.783 86.6053 600.25 86.84C599.717 87.0747 599.103 87.192 598.41 87.192C597.514 87.192 596.714 86.9733 596.01 86.536C595.317 86.088 594.773 85.4373 594.378 84.584C593.994 83.72 593.802 82.6853 593.802 81.48C593.802 80.2747 594.005 79.2453 594.41 78.392C594.815 77.528 595.365 76.8773 596.058 76.44C596.751 76.0027 597.525 75.784 598.378 75.784ZM609.401 87H608.137L608.025 85.688C607.705 86.2107 607.337 86.5947 606.921 86.84C606.505 87.0747 605.999 87.192 605.401 87.192C604.665 87.192 604.089 86.968 603.673 86.52C603.257 86.072 603.049 85.4373 603.049 84.616V78.568H604.521V84.456C604.521 85.032 604.623 85.4427 604.825 85.688C605.028 85.9227 605.359 86.04 605.817 86.04C606.639 86.04 607.343 85.5547 607.929 84.584V78.568H609.401V87ZM616.106 78.376C616.405 78.376 616.682 78.408 616.938 78.472L616.666 79.912C616.41 79.848 616.165 79.816 615.93 79.816C615.407 79.816 614.986 80.008 614.666 80.392C614.346 80.776 614.095 81.3733 613.914 82.184V87H612.442V78.568H613.706L613.85 80.28C614.074 79.6507 614.378 79.176 614.762 78.856C615.146 78.536 615.594 78.376 616.106 78.376ZM622.278 78.376C622.576 78.376 622.854 78.408 623.11 78.472L622.838 79.912C622.582 79.848 622.336 79.816 622.102 79.816C621.579 79.816 621.158 80.008 620.838 80.392C620.518 80.776 620.267 81.3733 620.086 82.184V87H618.614V78.568H619.878L620.022 80.28C620.246 79.6507 620.55 79.176 620.934 78.856C621.318 78.536 621.766 78.376 622.278 78.376ZM630.669 82.536C630.669 82.7813 630.659 83.032 630.637 83.288H625.261C625.325 84.216 625.56 84.8987 625.965 85.336C626.371 85.7733 626.893 85.992 627.533 85.992C627.939 85.992 628.312 85.9333 628.653 85.816C628.995 85.6987 629.352 85.512 629.725 85.256L630.365 86.136C629.469 86.84 628.488 87.192 627.421 87.192C626.248 87.192 625.331 86.808 624.669 86.04C624.019 85.272 623.693 84.216 623.693 82.872C623.693 81.9973 623.832 81.224 624.109 80.552C624.397 79.8693 624.803 79.336 625.325 78.952C625.859 78.568 626.483 78.376 627.197 78.376C628.317 78.376 629.176 78.744 629.773 79.48C630.371 80.216 630.669 81.2347 630.669 82.536ZM629.213 82.104C629.213 81.272 629.048 80.6373 628.717 80.2C628.387 79.7627 627.891 79.544 627.229 79.544C626.024 79.544 625.368 80.4293 625.261 82.2H629.213V82.104ZM636.988 78.376C637.756 78.376 638.353 78.6053 638.78 79.064C639.217 79.5227 639.436 80.152 639.436 80.952V87H637.964V81.16C637.964 80.5627 637.852 80.1413 637.628 79.896C637.404 79.6507 637.073 79.528 636.636 79.528C636.188 79.528 635.793 79.656 635.452 79.912C635.111 80.168 634.791 80.536 634.492 81.016V87H633.02V78.568H634.284L634.412 79.816C634.711 79.368 635.079 79.016 635.516 78.76C635.964 78.504 636.455 78.376 636.988 78.376ZM646.651 86.616C646.096 87 645.467 87.192 644.763 87.192C644.048 87.192 643.488 86.9893 643.083 86.584C642.688 86.168 642.491 85.5707 642.491 84.792V79.704H641.019V78.568H642.491V76.664L643.963 76.488V78.568H645.963L645.803 79.704H643.963V84.728C643.963 85.1653 644.038 85.4853 644.187 85.688C644.347 85.88 644.608 85.976 644.971 85.976C645.302 85.976 645.675 85.864 646.091 85.64L646.651 86.616ZM654.011 75.976V85.672H658.539L658.363 87H652.491V75.976H654.011ZM663.141 78.376C664.325 78.376 665.242 78.7707 665.893 79.56C666.554 80.3493 666.885 81.4213 666.885 82.776C666.885 83.6507 666.736 84.424 666.437 85.096C666.138 85.7573 665.706 86.2747 665.141 86.648C664.576 87.0107 663.904 87.192 663.125 87.192C661.941 87.192 661.018 86.7973 660.357 86.008C659.696 85.2187 659.365 84.1467 659.365 82.792C659.365 81.9173 659.514 81.1493 659.813 80.488C660.112 79.816 660.544 79.2987 661.109 78.936C661.674 78.5627 662.352 78.376 663.141 78.376ZM663.141 79.56C661.68 79.56 660.949 80.6373 660.949 82.792C660.949 84.936 661.674 86.008 663.125 86.008C664.576 86.008 665.301 84.9307 665.301 82.776C665.301 80.632 664.581 79.56 663.141 79.56ZM672.389 78.376C672.89 78.376 673.349 78.4507 673.765 78.6C674.181 78.7387 674.581 78.968 674.965 79.288L674.261 80.216C673.962 80.0027 673.669 79.848 673.381 79.752C673.104 79.6453 672.794 79.592 672.453 79.592C671.77 79.592 671.237 79.864 670.853 80.408C670.48 80.952 670.293 81.7573 670.293 82.824C670.293 83.8907 670.48 84.68 670.853 85.192C671.226 85.6933 671.76 85.944 672.453 85.944C672.784 85.944 673.088 85.896 673.365 85.8C673.642 85.6933 673.952 85.528 674.293 85.304L674.965 86.264C674.197 86.8827 673.338 87.192 672.389 87.192C671.248 87.192 670.346 86.808 669.685 86.04C669.034 85.272 668.709 84.2107 668.709 82.856C668.709 81.96 668.858 81.176 669.157 80.504C669.456 79.832 669.877 79.3093 670.421 78.936C670.976 78.5627 671.632 78.376 672.389 78.376ZM682.481 85.032C682.481 85.3733 682.54 85.6293 682.657 85.8C682.775 85.96 682.951 86.0827 683.185 86.168L682.849 87.192C682.412 87.1387 682.06 87.016 681.793 86.824C681.527 86.632 681.329 86.3333 681.201 85.928C680.636 86.7707 679.799 87.192 678.689 87.192C677.857 87.192 677.201 86.9573 676.721 86.488C676.241 86.0187 676.001 85.4053 676.001 84.648C676.001 83.752 676.321 83.064 676.961 82.584C677.612 82.104 678.529 81.864 679.713 81.864H681.009V81.24C681.009 80.6427 680.865 80.216 680.577 79.96C680.289 79.704 679.847 79.576 679.249 79.576C678.631 79.576 677.873 79.7253 676.977 80.024L676.609 78.952C677.655 78.568 678.625 78.376 679.521 78.376C680.513 78.376 681.255 78.6213 681.745 79.112C682.236 79.592 682.481 80.28 682.481 81.176V85.032ZM679.025 86.088C679.868 86.088 680.529 85.6507 681.009 84.776V82.84H679.905C678.348 82.84 677.569 83.416 677.569 84.568C677.569 85.0693 677.692 85.448 677.937 85.704C678.183 85.96 678.545 86.088 679.025 86.088ZM689.76 86.616C689.206 87 688.576 87.192 687.872 87.192C687.158 87.192 686.598 86.9893 686.192 86.584C685.798 86.168 685.6 85.5707 685.6 84.792V79.704H684.128V78.568H685.6V76.664L687.072 76.488V78.568H689.072L688.912 79.704H687.072V84.728C687.072 85.1653 687.147 85.4853 687.296 85.688C687.456 85.88 687.718 85.976 688.08 85.976C688.411 85.976 688.784 85.864 689.2 85.64L689.76 86.616ZM692.758 78.568V87H691.286V78.568H692.758ZM692.006 74.52C692.315 74.52 692.566 74.616 692.758 74.808C692.95 75 693.046 75.24 693.046 75.528C693.046 75.816 692.95 76.056 692.758 76.248C692.566 76.4293 692.315 76.52 692.006 76.52C691.707 76.52 691.462 76.4293 691.27 76.248C691.078 76.056 690.982 75.816 690.982 75.528C690.982 75.24 691.078 75 691.27 74.808C691.462 74.616 691.707 74.52 692.006 74.52ZM698.969 78.376C700.153 78.376 701.071 78.7707 701.721 79.56C702.383 80.3493 702.713 81.4213 702.713 82.776C702.713 83.6507 702.564 84.424 702.265 85.096C701.967 85.7573 701.535 86.2747 700.969 86.648C700.404 87.0107 699.732 87.192 698.953 87.192C697.769 87.192 696.847 86.7973 696.185 86.008C695.524 85.2187 695.193 84.1467 695.193 82.792C695.193 81.9173 695.343 81.1493 695.641 80.488C695.94 79.816 696.372 79.2987 696.937 78.936C697.503 78.5627 698.18 78.376 698.969 78.376ZM698.969 79.56C697.508 79.56 696.777 80.6373 696.777 82.792C696.777 84.936 697.503 86.008 698.953 86.008C700.404 86.008 701.129 84.9307 701.129 82.776C701.129 80.632 700.409 79.56 698.969 79.56ZM709.113 78.376C709.881 78.376 710.478 78.6053 710.905 79.064C711.342 79.5227 711.561 80.152 711.561 80.952V87H710.089V81.16C710.089 80.5627 709.977 80.1413 709.753 79.896C709.529 79.6507 709.198 79.528 708.761 79.528C708.313 79.528 707.918 79.656 707.577 79.912C707.236 80.168 706.916 80.536 706.617 81.016V87H705.145V78.568H706.409L706.537 79.816C706.836 79.368 707.204 79.016 707.641 78.76C708.089 78.504 708.58 78.376 709.113 78.376Z" fill="white"/>
</svg>
