<svg width="1001" height="496" viewBox="0 0 1001 496" fill="none" xmlns="http://www.w3.org/2000/svg">
<g opacity="0.29827">
<path d="M1008.08 163.448L443.182 -356.858V-747.19L28.1096 -770C24.9043 -762.456 4.36709 -740.714 7.57176 -728.596C11.43 -714.102 30.8387 -718.735 36.4776 -709.409C43.0661 -698.42 31.7291 -653.749 28.3457 -640.86C21.8759 -616.445 7.09676 -596.665 2.82235 -572.25C-4.35982 -531.263 10.1824 -534.53 37.7242 -508.927C84.141 -465.742 46.9244 -420.952 58.6176 -370.223C68.1146 -328.878 109.605 -307.554 124.8 -266.211C136.553 -234.37 152.697 -226.233 177.746 -202.947C177.153 -217.084 164.51 -258.785 188.253 -255.102C211.817 -251.478 202.736 -216.669 207.247 -202.115C211.045 -189.997 237.933 -165.761 215.616 -154.593C208.196 -150.91 187.066 -165.582 178.577 -169.503C184.572 -150.791 180.774 -131.367 190.271 -113.487C201.608 -92.162 213.835 -100.359 228.853 -88.7754C244.344 -76.8355 242.683 -63.1137 235.797 -45.0554C228.615 -26.2247 221.196 -29.1352 232.592 -6.44342C240.843 9.95119 254.85 30.7421 266.9 43.2164C273.904 50.4634 281.502 52.1267 288.506 61.3932C294.323 69.1155 292.067 79.2142 299.012 86.1638C310.883 98.1037 331.006 98.282 340.384 113.904C350.831 131.309 338.96 144.437 369.706 142.833C371.309 177.643 377.897 209.185 377.541 243.994C394.695 250.825 422.414 242.687 440.399 239.063C458.266 263.18 481.355 246.429 501.774 259.558C510.678 265.26 508.837 279.517 514.239 284.506C525.339 294.723 533.529 288.308 547.301 291.872C557.51 294.486 565.404 301.97 575.138 304.703C584.338 307.257 599.475 301.258 606.301 309.396C614.492 319.138 600.78 336.958 613.127 344.799C623.395 351.333 638.115 335.77 648.088 338.027C659.721 340.7 693.079 371.174 701.271 381.212C710.59 392.677 719.969 414.062 725.25 428.793C733.501 451.841 732.373 463.127 749.408 479.998C760.27 490.75 749.942 491.522 767.63 494.67C779.204 496.749 794.518 488.374 806.212 487.067C830.549 484.394 855.122 489.027 879.102 484.453C901.421 480.176 922.729 473.166 945.64 469.899C965.465 467.048 1000.37 469.246 1017.94 459.801C1036.99 449.643 1038.71 426.654 1011.17 430.932C1008.97 416.26 1018.77 396.003 1007.85 385.847C1023.04 365.056 1028.56 350.384 1030.93 324.959C1032 313.792 1032.48 301.436 1038 292.05C1043.4 282.783 1058.59 277.259 1061.56 269.299C1066.13 256.943 1058.83 251.419 1053.25 244.528C1049.69 240.073 1039.54 242.212 1036.63 238.291C1031.23 231.103 1036.57 223.678 1033.6 216.431C1024.94 195.462 1014.61 187.205 1008.08 163.444C1008.26 167.424 1008.44 171.463 1008.2 175.384" stroke="white" stroke-width="2" stroke-linecap="round" stroke-linejoin="round"/>
</g>
<path d="M724.241 91C704.325 104.057 750.971 108.639 788.304 117.173C799.366 119.702 800.421 123.879 788.778 126.407C763.738 131.841 668.802 123.935 674.824 131.099C681.044 138.498 761.308 148.85 764.926 149.558C796.693 155.774 807.039 171.546 789.543 180.193C777.094 186.346 694.554 184.272 668.59 182.223C498.564 168.805 575.179 170.405 384.186 166.238C369.565 165.919 354.244 165.756 340.202 166.786C325.739 167.846 326.199 172.196 331.051 174.548C347.133 182.342 419.127 195.561 399.753 205.805C393.809 208.949 379.878 210.934 373.605 214.041C368.691 216.474 369.236 219.347 367.052 222" stroke="white" stroke-width="2"/>
<path fill-rule="evenodd" clip-rule="evenodd" d="M570 319C571.657 319 573 317.657 573 316C573 314.343 571.657 313 570 313C568.343 313 567 314.343 567 316C567 317.657 568.343 319 570 319Z" fill="#4AF6CD"/>
<path fill-rule="evenodd" clip-rule="evenodd" d="M661 363C662.657 363 664 361.657 664 360C664 358.343 662.657 357 661 357C659.343 357 658 358.343 658 360C658 361.657 659.343 363 661 363Z" fill="#4AF6CD"/>
<path fill-rule="evenodd" clip-rule="evenodd" d="M725 471C726.657 471 728 469.657 728 468C728 466.343 726.657 465 725 465C723.343 465 722 466.343 722 468C722 469.657 723.343 471 725 471Z" fill="#4AF6CD"/>
<path fill-rule="evenodd" clip-rule="evenodd" d="M368.5 235C372.09 235 375 232.09 375 228.5C375 224.91 372.09 222 368.5 222C364.91 222 362 224.91 362 228.5C362 232.09 364.91 235 368.5 235Z" fill="#4AF6CD"/>
<path fill-rule="evenodd" clip-rule="evenodd" d="M729.5 91C733.09 91 736 88.0899 736 84.5C736 80.9101 733.09 78 729.5 78C725.91 78 723 80.9101 723 84.5C723 88.0899 725.91 91 729.5 91Z" fill="#4AF6CD"/>
<path d="M171.414 215.784C172.15 215.784 172.779 215.891 173.302 216.104C173.824 216.307 174.331 216.627 174.822 217.064L173.99 217.992C173.574 217.661 173.163 217.421 172.758 217.272C172.363 217.112 171.936 217.032 171.478 217.032C170.902 217.032 170.427 217.165 170.054 217.432C169.68 217.699 169.494 218.088 169.494 218.6C169.494 218.92 169.558 219.192 169.686 219.416C169.814 219.629 170.048 219.827 170.39 220.008C170.742 220.189 171.248 220.381 171.91 220.584C172.603 220.797 173.179 221.027 173.638 221.272C174.096 221.517 174.464 221.859 174.742 222.296C175.03 222.723 175.174 223.267 175.174 223.928C175.174 224.568 175.014 225.133 174.694 225.624C174.384 226.115 173.931 226.499 173.334 226.776C172.747 227.053 172.048 227.192 171.238 227.192C169.712 227.192 168.464 226.717 167.494 225.768L168.326 224.84C168.774 225.203 169.227 225.48 169.686 225.672C170.144 225.853 170.656 225.944 171.222 225.944C171.904 225.944 172.47 225.779 172.918 225.448C173.366 225.107 173.59 224.616 173.59 223.976C173.59 223.613 173.52 223.315 173.382 223.08C173.243 222.835 173.003 222.616 172.662 222.424C172.331 222.232 171.846 222.04 171.206 221.848C170.075 221.507 169.248 221.096 168.726 220.616C168.203 220.136 167.942 219.485 167.942 218.664C167.942 218.109 168.086 217.613 168.374 217.176C168.672 216.739 169.083 216.397 169.606 216.152C170.139 215.907 170.742 215.784 171.414 215.784ZM180.501 218.376C181.685 218.376 182.602 218.771 183.253 219.56C183.914 220.349 184.245 221.421 184.245 222.776C184.245 223.651 184.095 224.424 183.797 225.096C183.498 225.757 183.066 226.275 182.501 226.648C181.935 227.011 181.263 227.192 180.485 227.192C179.301 227.192 178.378 226.797 177.717 226.008C177.055 225.219 176.725 224.147 176.725 222.792C176.725 221.917 176.874 221.149 177.173 220.488C177.471 219.816 177.903 219.299 178.469 218.936C179.034 218.563 179.711 218.376 180.501 218.376ZM180.501 219.56C179.039 219.56 178.309 220.637 178.309 222.792C178.309 224.936 179.034 226.008 180.485 226.008C181.935 226.008 182.661 224.931 182.661 222.776C182.661 220.632 181.941 219.56 180.501 219.56ZM192.948 227H191.684L191.572 225.688C191.252 226.211 190.884 226.595 190.468 226.84C190.052 227.075 189.546 227.192 188.948 227.192C188.212 227.192 187.636 226.968 187.22 226.52C186.804 226.072 186.596 225.437 186.596 224.616V218.568H188.068V224.456C188.068 225.032 188.17 225.443 188.372 225.688C188.575 225.923 188.906 226.04 189.364 226.04C190.186 226.04 190.89 225.555 191.476 224.584V218.568H192.948V227ZM200.245 226.616C199.69 227 199.061 227.192 198.357 227.192C197.642 227.192 197.082 226.989 196.677 226.584C196.282 226.168 196.085 225.571 196.085 224.792V219.704H194.613V218.568H196.085V216.664L197.557 216.488V218.568H199.557L199.397 219.704H197.557V224.728C197.557 225.165 197.631 225.485 197.781 225.688C197.941 225.88 198.202 225.976 198.565 225.976C198.895 225.976 199.269 225.864 199.685 225.64L200.245 226.616ZM205.738 218.376C206.506 218.376 207.103 218.605 207.53 219.064C207.967 219.523 208.186 220.152 208.186 220.952V227H206.714V221.16C206.714 220.563 206.597 220.141 206.362 219.896C206.138 219.651 205.807 219.528 205.37 219.528C204.933 219.528 204.543 219.656 204.202 219.912C203.861 220.168 203.541 220.531 203.242 221V227H201.77V215.192L203.242 215.032V219.736C203.903 218.829 204.735 218.376 205.738 218.376ZM218.179 215.784C218.915 215.784 219.545 215.891 220.067 216.104C220.59 216.307 221.097 216.627 221.587 217.064L220.755 217.992C220.339 217.661 219.929 217.421 219.523 217.272C219.129 217.112 218.702 217.032 218.243 217.032C217.667 217.032 217.193 217.165 216.819 217.432C216.446 217.699 216.259 218.088 216.259 218.6C216.259 218.92 216.323 219.192 216.451 219.416C216.579 219.629 216.814 219.827 217.155 220.008C217.507 220.189 218.014 220.381 218.675 220.584C219.369 220.797 219.945 221.027 220.403 221.272C220.862 221.517 221.23 221.859 221.507 222.296C221.795 222.723 221.939 223.267 221.939 223.928C221.939 224.568 221.779 225.133 221.459 225.624C221.15 226.115 220.697 226.499 220.099 226.776C219.513 227.053 218.814 227.192 218.003 227.192C216.478 227.192 215.23 226.717 214.259 225.768L215.091 224.84C215.539 225.203 215.993 225.48 216.451 225.672C216.91 225.853 217.422 225.944 217.987 225.944C218.67 225.944 219.235 225.779 219.683 225.448C220.131 225.107 220.355 224.616 220.355 223.976C220.355 223.613 220.286 223.315 220.147 223.08C220.009 222.835 219.769 222.616 219.427 222.424C219.097 222.232 218.611 222.04 217.971 221.848C216.841 221.507 216.014 221.096 215.491 220.616C214.969 220.136 214.707 219.485 214.707 218.664C214.707 218.109 214.851 217.613 215.139 217.176C215.438 216.739 215.849 216.397 216.371 216.152C216.905 215.907 217.507 215.784 218.179 215.784ZM228.066 218.376C228.834 218.376 229.431 218.605 229.858 219.064C230.295 219.523 230.514 220.152 230.514 220.952V227H229.042V221.16C229.042 220.563 228.925 220.141 228.69 219.896C228.466 219.651 228.135 219.528 227.698 219.528C227.261 219.528 226.871 219.656 226.53 219.912C226.189 220.168 225.869 220.531 225.57 221V227H224.098V215.192L225.57 215.032V219.736C226.231 218.829 227.063 218.376 228.066 218.376ZM236.641 218.376C237.825 218.376 238.742 218.771 239.393 219.56C240.054 220.349 240.385 221.421 240.385 222.776C240.385 223.651 240.236 224.424 239.937 225.096C239.638 225.757 239.206 226.275 238.641 226.648C238.076 227.011 237.404 227.192 236.625 227.192C235.441 227.192 234.518 226.797 233.857 226.008C233.196 225.219 232.865 224.147 232.865 222.792C232.865 221.917 233.014 221.149 233.313 220.488C233.612 219.816 234.044 219.299 234.609 218.936C235.174 218.563 235.852 218.376 236.641 218.376ZM236.641 219.56C235.18 219.56 234.449 220.637 234.449 222.792C234.449 224.936 235.174 226.008 236.625 226.008C238.076 226.008 238.801 224.931 238.801 222.776C238.801 220.632 238.081 219.56 236.641 219.56ZM246.481 218.376C246.78 218.376 247.057 218.408 247.313 218.472L247.041 219.912C246.785 219.848 246.54 219.816 246.305 219.816C245.782 219.816 245.361 220.008 245.041 220.392C244.721 220.776 244.47 221.373 244.289 222.184V227H242.817V218.568H244.081L244.225 220.28C244.449 219.651 244.753 219.176 245.137 218.856C245.521 218.536 245.969 218.376 246.481 218.376ZM254.872 222.536C254.872 222.781 254.862 223.032 254.84 223.288H249.464C249.528 224.216 249.763 224.899 250.168 225.336C250.574 225.773 251.096 225.992 251.736 225.992C252.142 225.992 252.515 225.933 252.856 225.816C253.198 225.699 253.555 225.512 253.928 225.256L254.568 226.136C253.672 226.84 252.691 227.192 251.624 227.192C250.451 227.192 249.534 226.808 248.872 226.04C248.222 225.272 247.896 224.216 247.896 222.872C247.896 221.997 248.035 221.224 248.312 220.552C248.6 219.869 249.006 219.336 249.528 218.952C250.062 218.568 250.686 218.376 251.4 218.376C252.52 218.376 253.379 218.744 253.976 219.48C254.574 220.216 254.872 221.235 254.872 222.536ZM253.416 222.104C253.416 221.272 253.251 220.637 252.92 220.2C252.59 219.763 252.094 219.544 251.432 219.544C250.227 219.544 249.571 220.429 249.464 222.2H253.416V222.104ZM263.41 214.184V228.568H263.058V214.184H263.41ZM282.237 227H280.765L280.381 222.024C280.221 220.072 280.131 218.573 280.109 217.528L277.725 225.752H276.301L273.789 217.512C273.789 218.845 273.72 220.387 273.581 222.136L273.213 227H271.773L272.685 215.976H274.733L277.053 223.992L279.261 215.976H281.325L282.237 227ZM290.434 225.032C290.434 225.373 290.493 225.629 290.61 225.8C290.728 225.96 290.904 226.083 291.138 226.168L290.802 227.192C290.365 227.139 290.013 227.016 289.746 226.824C289.48 226.632 289.282 226.333 289.154 225.928C288.589 226.771 287.752 227.192 286.642 227.192C285.81 227.192 285.154 226.957 284.674 226.488C284.194 226.019 283.954 225.405 283.954 224.648C283.954 223.752 284.274 223.064 284.914 222.584C285.565 222.104 286.482 221.864 287.666 221.864H288.962V221.24C288.962 220.643 288.818 220.216 288.53 219.96C288.242 219.704 287.8 219.576 287.202 219.576C286.584 219.576 285.826 219.725 284.93 220.024L284.562 218.952C285.608 218.568 286.578 218.376 287.474 218.376C288.466 218.376 289.208 218.621 289.698 219.112C290.189 219.592 290.434 220.28 290.434 221.176V225.032ZM286.978 226.088C287.821 226.088 288.482 225.651 288.962 224.776V222.84H287.858C286.301 222.84 285.522 223.416 285.522 224.568C285.522 225.069 285.645 225.448 285.89 225.704C286.136 225.96 286.498 226.088 286.978 226.088ZM294.981 227.192C294.437 227.192 294.005 227.032 293.685 226.712C293.376 226.381 293.221 225.923 293.221 225.336V215.176L294.693 215V225.304C294.693 225.539 294.731 225.709 294.805 225.816C294.891 225.923 295.029 225.976 295.221 225.976C295.424 225.976 295.605 225.944 295.765 225.88L296.149 226.904C295.797 227.096 295.408 227.192 294.981 227.192ZM299.461 218.568V227H297.989V218.568H299.461ZM298.709 214.52C299.018 214.52 299.269 214.616 299.461 214.808C299.653 215 299.749 215.24 299.749 215.528C299.749 215.816 299.653 216.056 299.461 216.248C299.269 216.429 299.018 216.52 298.709 216.52C298.41 216.52 298.165 216.429 297.973 216.248C297.781 216.056 297.685 215.816 297.685 215.528C297.685 215.24 297.781 215 297.973 214.808C298.165 214.616 298.41 214.52 298.709 214.52ZM306.36 218.376C307.32 218.376 308.083 218.765 308.648 219.544C309.214 220.312 309.496 221.389 309.496 222.776C309.496 223.651 309.363 224.424 309.096 225.096C308.83 225.757 308.446 226.275 307.944 226.648C307.443 227.011 306.856 227.192 306.184 227.192C305.299 227.192 304.552 226.819 303.944 226.072L303.8 227H302.504V215.176L303.976 215V219.624C304.584 218.792 305.379 218.376 306.36 218.376ZM305.832 226.024C306.483 226.024 306.99 225.763 307.352 225.24C307.726 224.707 307.912 223.885 307.912 222.776C307.912 221.635 307.742 220.813 307.4 220.312C307.059 219.8 306.574 219.544 305.944 219.544C305.198 219.544 304.542 219.981 303.976 220.856V224.888C304.2 225.24 304.472 225.517 304.792 225.72C305.123 225.923 305.47 226.024 305.832 226.024ZM318.276 227H317.012L316.9 225.688C316.58 226.211 316.212 226.595 315.796 226.84C315.38 227.075 314.874 227.192 314.276 227.192C313.54 227.192 312.964 226.968 312.548 226.52C312.132 226.072 311.924 225.437 311.924 224.616V218.568H313.396V224.456C313.396 225.032 313.498 225.443 313.7 225.688C313.903 225.923 314.234 226.04 314.692 226.04C315.514 226.04 316.218 225.555 316.804 224.584V218.568H318.276V227ZM321.701 224.968C322.021 224.968 322.288 225.075 322.501 225.288C322.714 225.501 322.821 225.763 322.821 226.072C322.821 226.403 322.725 226.781 322.533 227.208L321.461 229.656H320.405L321.045 227C320.906 226.893 320.794 226.76 320.709 226.6C320.634 226.44 320.597 226.264 320.597 226.072C320.597 225.763 320.704 225.501 320.917 225.288C321.13 225.075 321.392 224.968 321.701 224.968ZM333.331 215.784C333.992 215.784 334.547 215.869 334.995 216.04C335.454 216.211 335.918 216.488 336.387 216.872L335.555 217.848C334.883 217.304 334.174 217.032 333.427 217.032C332.51 217.032 331.768 217.384 331.203 218.088C330.648 218.792 330.371 219.923 330.371 221.48C330.371 222.995 330.648 224.115 331.203 224.84C331.758 225.555 332.494 225.912 333.411 225.912C333.88 225.912 334.291 225.832 334.643 225.672C334.995 225.512 335.368 225.288 335.763 225L336.515 225.96C336.174 226.312 335.736 226.605 335.203 226.84C334.67 227.075 334.056 227.192 333.363 227.192C332.467 227.192 331.667 226.973 330.963 226.536C330.27 226.088 329.726 225.437 329.331 224.584C328.947 223.72 328.755 222.685 328.755 221.48C328.755 220.275 328.958 219.245 329.363 218.392C329.768 217.528 330.318 216.877 331.011 216.44C331.704 216.003 332.478 215.784 333.331 215.784ZM344.3 227L343.468 224.232H339.292L338.46 227H336.924L340.46 215.976H342.38L345.9 227H344.3ZM339.66 223H343.1L341.388 217.24L339.66 223Z" fill="white"/>
<path d="M598.378 75.784C599.039 75.784 599.594 75.8693 600.042 76.04C600.501 76.2107 600.965 76.488 601.434 76.872L600.602 77.848C599.93 77.304 599.221 77.032 598.474 77.032C597.557 77.032 596.815 77.384 596.25 78.088C595.695 78.792 595.418 79.9227 595.418 81.48C595.418 82.9947 595.695 84.1147 596.25 84.84C596.805 85.5547 597.541 85.912 598.458 85.912C598.927 85.912 599.338 85.832 599.69 85.672C600.042 85.512 600.415 85.288 600.81 85L601.562 85.96C601.221 86.312 600.783 86.6053 600.25 86.84C599.717 87.0747 599.103 87.192 598.41 87.192C597.514 87.192 596.714 86.9733 596.01 86.536C595.317 86.088 594.773 85.4373 594.378 84.584C593.994 83.72 593.802 82.6853 593.802 81.48C593.802 80.2747 594.005 79.2453 594.41 78.392C594.815 77.528 595.365 76.8773 596.058 76.44C596.751 76.0027 597.525 75.784 598.378 75.784ZM609.401 87H608.137L608.025 85.688C607.705 86.2107 607.337 86.5947 606.921 86.84C606.505 87.0747 605.999 87.192 605.401 87.192C604.665 87.192 604.089 86.968 603.673 86.52C603.257 86.072 603.049 85.4373 603.049 84.616V78.568H604.521V84.456C604.521 85.032 604.623 85.4427 604.825 85.688C605.028 85.9227 605.359 86.04 605.817 86.04C606.639 86.04 607.343 85.5547 607.929 84.584V78.568H609.401V87ZM616.106 78.376C616.405 78.376 616.682 78.408 616.938 78.472L616.666 79.912C616.41 79.848 616.165 79.816 615.93 79.816C615.407 79.816 614.986 80.008 614.666 80.392C614.346 80.776 614.095 81.3733 613.914 82.184V87H612.442V78.568H613.706L613.85 80.28C614.074 79.6507 614.378 79.176 614.762 78.856C615.146 78.536 615.594 78.376 616.106 78.376ZM622.278 78.376C622.576 78.376 622.854 78.408 623.11 78.472L622.838 79.912C622.582 79.848 622.336 79.816 622.102 79.816C621.579 79.816 621.158 80.008 620.838 80.392C620.518 80.776 620.267 81.3733 620.086 82.184V87H618.614V78.568H619.878L620.022 80.28C620.246 79.6507 620.55 79.176 620.934 78.856C621.318 78.536 621.766 78.376 622.278 78.376ZM630.669 82.536C630.669 82.7813 630.659 83.032 630.637 83.288H625.261C625.325 84.216 625.56 84.8987 625.965 85.336C626.371 85.7733 626.893 85.992 627.533 85.992C627.939 85.992 628.312 85.9333 628.653 85.816C628.995 85.6987 629.352 85.512 629.725 85.256L630.365 86.136C629.469 86.84 628.488 87.192 627.421 87.192C626.248 87.192 625.331 86.808 624.669 86.04C624.019 85.272 623.693 84.216 623.693 82.872C623.693 81.9973 623.832 81.224 624.109 80.552C624.397 79.8693 624.803 79.336 625.325 78.952C625.859 78.568 626.483 78.376 627.197 78.376C628.317 78.376 629.176 78.744 629.773 79.48C630.371 80.216 630.669 81.2347 630.669 82.536ZM629.213 82.104C629.213 81.272 629.048 80.6373 628.717 80.2C628.387 79.7627 627.891 79.544 627.229 79.544C626.024 79.544 625.368 80.4293 625.261 82.2H629.213V82.104ZM636.988 78.376C637.756 78.376 638.353 78.6053 638.78 79.064C639.217 79.5227 639.436 80.152 639.436 80.952V87H637.964V81.16C637.964 80.5627 637.852 80.1413 637.628 79.896C637.404 79.6507 637.073 79.528 636.636 79.528C636.188 79.528 635.793 79.656 635.452 79.912C635.111 80.168 634.791 80.536 634.492 81.016V87H633.02V78.568H634.284L634.412 79.816C634.711 79.368 635.079 79.016 635.516 78.76C635.964 78.504 636.455 78.376 636.988 78.376ZM646.651 86.616C646.096 87 645.467 87.192 644.763 87.192C644.048 87.192 643.488 86.9893 643.083 86.584C642.688 86.168 642.491 85.5707 642.491 84.792V79.704H641.019V78.568H642.491V76.664L643.963 76.488V78.568H645.963L645.803 79.704H643.963V84.728C643.963 85.1653 644.038 85.4853 644.187 85.688C644.347 85.88 644.608 85.976 644.971 85.976C645.302 85.976 645.675 85.864 646.091 85.64L646.651 86.616ZM654.011 75.976V85.672H658.539L658.363 87H652.491V75.976H654.011ZM663.141 78.376C664.325 78.376 665.242 78.7707 665.893 79.56C666.554 80.3493 666.885 81.4213 666.885 82.776C666.885 83.6507 666.736 84.424 666.437 85.096C666.138 85.7573 665.706 86.2747 665.141 86.648C664.576 87.0107 663.904 87.192 663.125 87.192C661.941 87.192 661.018 86.7973 660.357 86.008C659.696 85.2187 659.365 84.1467 659.365 82.792C659.365 81.9173 659.514 81.1493 659.813 80.488C660.112 79.816 660.544 79.2987 661.109 78.936C661.674 78.5627 662.352 78.376 663.141 78.376ZM663.141 79.56C661.68 79.56 660.949 80.6373 660.949 82.792C660.949 84.936 661.674 86.008 663.125 86.008C664.576 86.008 665.301 84.9307 665.301 82.776C665.301 80.632 664.581 79.56 663.141 79.56ZM672.389 78.376C672.89 78.376 673.349 78.4507 673.765 78.6C674.181 78.7387 674.581 78.968 674.965 79.288L674.261 80.216C673.962 80.0027 673.669 79.848 673.381 79.752C673.104 79.6453 672.794 79.592 672.453 79.592C671.77 79.592 671.237 79.864 670.853 80.408C670.48 80.952 670.293 81.7573 670.293 82.824C670.293 83.8907 670.48 84.68 670.853 85.192C671.226 85.6933 671.76 85.944 672.453 85.944C672.784 85.944 673.088 85.896 673.365 85.8C673.642 85.6933 673.952 85.528 674.293 85.304L674.965 86.264C674.197 86.8827 673.338 87.192 672.389 87.192C671.248 87.192 670.346 86.808 669.685 86.04C669.034 85.272 668.709 84.2107 668.709 82.856C668.709 81.96 668.858 81.176 669.157 80.504C669.456 79.832 669.877 79.3093 670.421 78.936C670.976 78.5627 671.632 78.376 672.389 78.376ZM682.481 85.032C682.481 85.3733 682.54 85.6293 682.657 85.8C682.775 85.96 682.951 86.0827 683.185 86.168L682.849 87.192C682.412 87.1387 682.06 87.016 681.793 86.824C681.527 86.632 681.329 86.3333 681.201 85.928C680.636 86.7707 679.799 87.192 678.689 87.192C677.857 87.192 677.201 86.9573 676.721 86.488C676.241 86.0187 676.001 85.4053 676.001 84.648C676.001 83.752 676.321 83.064 676.961 82.584C677.612 82.104 678.529 81.864 679.713 81.864H681.009V81.24C681.009 80.6427 680.865 80.216 680.577 79.96C680.289 79.704 679.847 79.576 679.249 79.576C678.631 79.576 677.873 79.7253 676.977 80.024L676.609 78.952C677.655 78.568 678.625 78.376 679.521 78.376C680.513 78.376 681.255 78.6213 681.745 79.112C682.236 79.592 682.481 80.28 682.481 81.176V85.032ZM679.025 86.088C679.868 86.088 680.529 85.6507 681.009 84.776V82.84H679.905C678.348 82.84 677.569 83.416 677.569 84.568C677.569 85.0693 677.692 85.448 677.937 85.704C678.183 85.96 678.545 86.088 679.025 86.088ZM689.76 86.616C689.206 87 688.576 87.192 687.872 87.192C687.158 87.192 686.598 86.9893 686.192 86.584C685.798 86.168 685.6 85.5707 685.6 84.792V79.704H684.128V78.568H685.6V76.664L687.072 76.488V78.568H689.072L688.912 79.704H687.072V84.728C687.072 85.1653 687.147 85.4853 687.296 85.688C687.456 85.88 687.718 85.976 688.08 85.976C688.411 85.976 688.784 85.864 689.2 85.64L689.76 86.616ZM692.758 78.568V87H691.286V78.568H692.758ZM692.006 74.52C692.315 74.52 692.566 74.616 692.758 74.808C692.95 75 693.046 75.24 693.046 75.528C693.046 75.816 692.95 76.056 692.758 76.248C692.566 76.4293 692.315 76.52 692.006 76.52C691.707 76.52 691.462 76.4293 691.27 76.248C691.078 76.056 690.982 75.816 690.982 75.528C690.982 75.24 691.078 75 691.27 74.808C691.462 74.616 691.707 74.52 692.006 74.52ZM698.969 78.376C700.153 78.376 701.071 78.7707 701.721 79.56C702.383 80.3493 702.713 81.4213 702.713 82.776C702.713 83.6507 702.564 84.424 702.265 85.096C701.967 85.7573 701.535 86.2747 700.969 86.648C700.404 87.0107 699.732 87.192 698.953 87.192C697.769 87.192 696.847 86.7973 696.185 86.008C695.524 85.2187 695.193 84.1467 695.193 82.792C695.193 81.9173 695.343 81.1493 695.641 80.488C695.94 79.816 696.372 79.2987 696.937 78.936C697.503 78.5627 698.18 78.376 698.969 78.376ZM698.969 79.56C697.508 79.56 696.777 80.6373 696.777 82.792C696.777 84.936 697.503 86.008 698.953 86.008C700.404 86.008 701.129 84.9307 701.129 82.776C701.129 80.632 700.409 79.56 698.969 79.56ZM709.113 78.376C709.881 78.376 710.478 78.6053 710.905 79.064C711.342 79.5227 711.561 80.152 711.561 80.952V87H710.089V81.16C710.089 80.5627 709.977 80.1413 709.753 79.896C709.529 79.6507 709.198 79.528 708.761 79.528C708.313 79.528 707.918 79.656 707.577 79.912C707.236 80.168 706.916 80.536 706.617 81.016V87H705.145V78.568H706.409L706.537 79.816C706.836 79.368 707.204 79.016 707.641 78.76C708.089 78.504 708.58 78.376 709.113 78.376Z" fill="white"/>
</svg>
